G04 #@! TF.FileFunction,Copper,L1,Top,Signal*
%FSLAX46Y46*%
G04 Gerber Fmt 4.6, Leading zero omitted, Abs format (unit mm)*
G04 Created by KiCad (PCBNEW 4.0.7) date 03/19/18 19:12:47*
%MOMM*%
%LPD*%
G01*
G04 APERTURE LIST*
%ADD10C,0.100000*%
%ADD11C,1.524000*%
%ADD12C,1.000000*%
%ADD13C,0.250000*%
%ADD14C,0.127000*%
G04 APERTURE END LIST*
D10*
D11*
X149098000Y-106426000D03*
X149098000Y-103886000D03*
X149098000Y-101346000D03*
D12*
X151130000Y-102616000D03*
X151130000Y-103886000D03*
X151130000Y-105156000D03*
D13*
X149098000Y-103886000D02*
X151130000Y-103886000D01*
X149098000Y-101346000D02*
X149860000Y-101346000D01*
X149860000Y-101346000D02*
X151130000Y-102616000D01*
D14*
G36*
X153228626Y-100615524D02*
X153931098Y-101084902D01*
X154400476Y-101787374D01*
X154572500Y-102652198D01*
X154572500Y-105373802D01*
X154419811Y-106141424D01*
X154005493Y-106761493D01*
X153385423Y-107175811D01*
X152617802Y-107328500D01*
X148195500Y-107328500D01*
X148195500Y-104509901D01*
X148485714Y-104800622D01*
X148882332Y-104965313D01*
X149311784Y-104965687D01*
X149708689Y-104801689D01*
X150012622Y-104498286D01*
X150083124Y-104328500D01*
X150428301Y-104328500D01*
X150436553Y-104348472D01*
X150666319Y-104578639D01*
X150966676Y-104703358D01*
X151291897Y-104703642D01*
X151592472Y-104579447D01*
X151822639Y-104349681D01*
X151947358Y-104049324D01*
X151947642Y-103724103D01*
X151823447Y-103423528D01*
X151651120Y-103250901D01*
X151822639Y-103079681D01*
X151947358Y-102779324D01*
X151947642Y-102454103D01*
X151823447Y-102153528D01*
X151593681Y-101923361D01*
X151293324Y-101798642D01*
X150968103Y-101798358D01*
X150946906Y-101807116D01*
X150172895Y-101033105D01*
X150122944Y-100999729D01*
X150013689Y-100735311D01*
X149722387Y-100443500D01*
X152363802Y-100443500D01*
X153228626Y-100615524D01*
X153228626Y-100615524D01*
G37*
X153228626Y-100615524D02*
X153931098Y-101084902D01*
X154400476Y-101787374D01*
X154572500Y-102652198D01*
X154572500Y-105373802D01*
X154419811Y-106141424D01*
X154005493Y-106761493D01*
X153385423Y-107175811D01*
X152617802Y-107328500D01*
X148195500Y-107328500D01*
X148195500Y-104509901D01*
X148485714Y-104800622D01*
X148882332Y-104965313D01*
X149311784Y-104965687D01*
X149708689Y-104801689D01*
X150012622Y-104498286D01*
X150083124Y-104328500D01*
X150428301Y-104328500D01*
X150436553Y-104348472D01*
X150666319Y-104578639D01*
X150966676Y-104703358D01*
X151291897Y-104703642D01*
X151592472Y-104579447D01*
X151822639Y-104349681D01*
X151947358Y-104049324D01*
X151947642Y-103724103D01*
X151823447Y-103423528D01*
X151651120Y-103250901D01*
X151822639Y-103079681D01*
X151947358Y-102779324D01*
X151947642Y-102454103D01*
X151823447Y-102153528D01*
X151593681Y-101923361D01*
X151293324Y-101798642D01*
X150968103Y-101798358D01*
X150946906Y-101807116D01*
X150172895Y-101033105D01*
X150122944Y-100999729D01*
X150013689Y-100735311D01*
X149722387Y-100443500D01*
X152363802Y-100443500D01*
X153228626Y-100615524D01*
M02*
